<svg xmlns="http://www.w3.org/2000/svg" xmlns:xlink="http://www.w3.org/1999/xlink" width="500" zoomAndPan="magnify" viewBox="0 0 375 374.999991" height="500" preserveAspectRatio="xMidYMid meet" version="1.0"><defs><clipPath id="fd1000c36d"><path d="M 97.792969 79.128906 L 277.042969 79.128906 L 277.042969 258.378906 L 97.792969 258.378906 Z M 97.792969 79.128906 " clip-rule="nonzero"/></clipPath><clipPath id="07e2a3e51b"><path d="M 151.953125 133.285156 L 223.203125 133.285156 L 223.203125 204.535156 L 151.953125 204.535156 Z M 151.953125 133.285156 " clip-rule="nonzero"/></clipPath><clipPath id="f06568038f"><path d="M 97.792969 162.074219 L 169.65625 162.074219 L 169.65625 183.511719 L 97.792969 183.511719 Z M 97.792969 162.074219 " clip-rule="nonzero"/></clipPath><clipPath id="8fff31771c"><path d="M 205.34375 162.074219 L 277.207031 162.074219 L 277.207031 183.511719 L 205.34375 183.511719 Z M 205.34375 162.074219 " clip-rule="nonzero"/></clipPath><clipPath id="f943dbbe72"><path d="M 166.941406 148.273438 L 208.191406 148.273438 L 208.191406 189.523438 L 166.941406 189.523438 Z M 166.941406 148.273438 " clip-rule="nonzero"/></clipPath></defs><g clip-path="url(#fd1000c36d)"><path fill="#a6a6a6" d="M 187.496094 79.128906 C 137.933594 79.128906 97.792969 119.269531 97.792969 168.832031 C 97.792969 218.390625 137.933594 258.53125 187.496094 258.53125 C 237.054688 258.53125 277.195312 218.390625 277.195312 168.832031 C 277.195312 119.269531 237.054688 79.128906 187.496094 79.128906 Z M 187.496094 79.128906 " fill-opacity="1" fill-rule="nonzero"/></g><g clip-path="url(#07e2a3e51b)"><path fill="#d0d1d9" d="M 187.496094 133.285156 C 167.855469 133.285156 151.953125 149.191406 151.953125 168.828125 C 151.953125 188.464844 167.855469 204.371094 187.496094 204.371094 C 207.132812 204.371094 223.039062 188.464844 223.039062 168.828125 C 223.039062 149.191406 207.132812 133.285156 187.496094 133.285156 Z M 187.496094 133.285156 " fill-opacity="1" fill-rule="nonzero"/></g><g clip-path="url(#f06568038f)"><path fill="#d0d1d9" d="M 97.792969 162.074219 L 169.640625 162.074219 L 169.640625 183.511719 L 97.792969 183.511719 Z M 97.792969 162.074219 " fill-opacity="1" fill-rule="nonzero"/></g><g clip-path="url(#8fff31771c)"><path fill="#d0d1d9" d="M 205.34375 162.074219 L 277.191406 162.074219 L 277.191406 183.511719 L 205.34375 183.511719 Z M 205.34375 162.074219 " fill-opacity="1" fill-rule="nonzero"/></g><g clip-path="url(#f943dbbe72)"><path fill="#a6a6a6" d="M 187.496094 148.273438 C 176.136719 148.273438 166.941406 157.472656 166.941406 168.828125 C 166.941406 180.1875 176.136719 189.382812 187.496094 189.382812 C 198.851562 189.382812 208.050781 180.1875 208.050781 168.828125 C 208.050781 157.472656 198.851562 148.273438 187.496094 148.273438 Z M 187.496094 148.273438 " fill-opacity="1" fill-rule="nonzero"/></g></svg>